<svg width="33" height="33" viewBox="0 0 33 33" fill="none" xmlns="http://www.w3.org/2000/svg">
<path d="M24.7325 6.39903C24.3576 6.39903 23.9912 6.51021 23.6794 6.71849C23.3677 6.92677 23.1248 7.22281 22.9813 7.56917C22.8378 7.91553 22.8003 8.29666 22.8734 8.66435C22.9466 9.03205 23.1271 9.3698 23.3922 9.63489C23.6573 9.89998 23.995 10.0805 24.3627 10.1537C24.7304 10.2268 25.1116 10.1893 25.4579 10.0458C25.8043 9.90232 26.1003 9.65937 26.3086 9.34765C26.5169 9.03593 26.6281 8.66945 26.6281 8.29456C26.6281 7.79183 26.4284 7.3097 26.0729 6.95422C25.7174 6.59874 25.2353 6.39903 24.7325 6.39903ZM31.9987 10.2217C31.968 8.91107 31.7225 7.61438 31.2721 6.38324C30.8704 5.32985 30.2453 4.37601 29.4397 3.58735C28.6576 2.77768 27.7015 2.15651 26.6439 1.7708C25.416 1.30666 24.1178 1.05558 22.8054 1.02839C21.1311 0.933617 20.594 0.933617 16.2975 0.933617C12.001 0.933617 11.4639 0.933617 9.78952 1.02839C8.47711 1.05558 7.17898 1.30666 5.95109 1.7708C4.8954 2.16041 3.94015 2.78106 3.15519 3.58735C2.34553 4.36953 1.72435 5.3256 1.33865 6.38324C0.874505 7.61113 0.623426 8.90926 0.596241 10.2217C0.501465 11.896 0.501465 12.4331 0.501465 16.7296C0.501465 21.0261 0.501465 21.5632 0.596241 23.2376C0.623426 24.55 0.874505 25.8481 1.33865 27.076C1.72435 28.1336 2.34553 29.0897 3.15519 29.8719C3.94015 30.6782 4.8954 31.2988 5.95109 31.6884C7.17898 32.1526 8.47711 32.4037 9.78952 32.4309C11.4639 32.5256 12.001 32.5256 16.2975 32.5256C20.594 32.5256 21.1311 32.5256 22.8054 32.4309C24.1178 32.4037 25.416 32.1526 26.6439 31.6884C27.7015 31.3027 28.6576 30.6816 29.4397 29.8719C30.2489 29.0862 30.8746 28.1315 31.2721 27.076C31.7225 25.8449 31.968 24.5482 31.9987 23.2376C31.9987 21.5632 32.0935 21.0261 32.0935 16.7296C32.0935 12.4331 32.0935 11.896 31.9987 10.2217ZM29.1554 23.048C29.1439 24.0507 28.9623 25.0442 28.6184 25.9861C28.3661 26.6735 27.9611 27.2947 27.4337 27.8026C26.9213 28.3247 26.3014 28.729 25.6171 28.9873C24.6752 29.3313 23.6817 29.5129 22.6791 29.5244C21.0995 29.6034 20.515 29.6192 16.3607 29.6192C12.2063 29.6192 11.6219 29.6192 10.0423 29.5244C9.00112 29.5439 7.96444 29.3836 6.97783 29.0505C6.32353 28.7789 5.73208 28.3757 5.24027 27.8658C4.71598 27.3584 4.31595 26.7367 4.07136 26.0493C3.68571 25.0938 3.47181 24.0778 3.43952 23.048C3.43952 21.4684 3.34475 20.884 3.34475 16.7296C3.34475 12.5753 3.34475 11.9908 3.43952 10.4112C3.4466 9.38615 3.63373 8.37029 3.99238 7.40998C4.27047 6.74325 4.6973 6.14892 5.24027 5.67242C5.72017 5.1293 6.31327 4.69796 6.97783 4.40874C7.94067 4.06129 8.95548 3.8797 9.97907 3.87167C11.5587 3.87167 12.1431 3.7769 16.2975 3.7769C20.4518 3.7769 21.0363 3.7769 22.6159 3.87167C23.6186 3.88317 24.612 4.06477 25.5539 4.40874C26.2717 4.67514 26.916 5.10826 27.4337 5.67242C27.9513 6.15764 28.3558 6.75086 28.6184 7.40998C28.9694 8.37185 29.1511 9.38729 29.1554 10.4112C29.2344 11.9908 29.2502 12.5753 29.2502 16.7296C29.2502 20.884 29.2344 21.4684 29.1554 23.048ZM16.2975 8.62627C14.6955 8.62939 13.1303 9.1073 11.7998 9.9996C10.4693 10.8919 9.43312 12.1586 8.82222 13.6395C8.21132 15.1205 8.0531 16.7493 8.36755 18.3202C8.682 19.891 9.45501 21.3334 10.5889 22.4651C11.7228 23.5968 13.1667 24.367 14.7382 24.6784C16.3096 24.9898 17.9381 24.8284 19.4179 24.2146C20.8977 23.6008 22.1623 22.5622 23.052 21.23C23.9418 19.8977 24.4166 18.3316 24.4166 16.7296C24.4187 15.6636 24.21 14.6076 23.8025 13.6225C23.3951 12.6374 22.7968 11.7425 22.0423 10.9894C21.2877 10.2363 20.3917 9.63987 19.4058 9.23431C18.4199 8.82874 17.3635 8.6221 16.2975 8.62627ZM16.2975 21.9897C15.2571 21.9897 14.2401 21.6812 13.3751 21.1032C12.5101 20.5252 11.8359 19.7037 11.4378 18.7426C11.0397 17.7814 10.9355 16.7238 11.1385 15.7034C11.3414 14.6831 11.8424 13.7458 12.578 13.0102C13.3137 12.2746 14.2509 11.7736 15.2713 11.5706C16.2916 11.3677 17.3493 11.4718 18.3104 11.87C19.2716 12.2681 20.0931 12.9423 20.6711 13.8073C21.249 14.6723 21.5575 15.6893 21.5575 16.7296C21.5575 17.4204 21.4215 18.1044 21.1571 18.7426C20.8928 19.3807 20.5053 19.9606 20.0169 20.4491C19.5285 20.9375 18.9486 21.325 18.3104 21.5893C17.6722 21.8536 16.9882 21.9897 16.2975 21.9897Z" fill="currentColor"/>
</svg>
